<svg version="1.1" id="Layer_1" xmlns="http://www.w3.org/2000/svg" xmlns:xlink="http://www.w3.org/1999/xlink" x="0px" y="0px"
     viewBox="0 0 140.5 125" style="enable-background:new 0 0 140.5 125;" xml:space="preserve">
<style type="text/css">
    .st0{fill:#3498DB;}
</style>
<path class="st0" d="M40.5,0c-3.8,0-7.5,2.2-9.4,5.4L1.4,57.1c-1.9,3.3-1.9,7.6,0,10.9l29.7,51.6c1.9,3.3,5.6,5.4,9.4,5.4H100
    c3.8,0,7.5-2.2,9.4-5.4l29.7-51.6c1.9-3.3,1.9-7.6,0-10.9L109.4,5.4C107.5,2.2,103.7,0,100,0H40.5z M41.1,30.2c0.1,0,0.2,0,0.2,0
    h10.2c0.5,0,0.9,0.3,1.1,0.7l17.4,31c0.1,0.2,0.1,0.3,0.2,0.5c0-0.2,0.1-0.3,0.2-0.5l17.3-31c0.2-0.4,0.7-0.7,1.2-0.7h10.2
    c0.9,0,1.6,1.2,1.2,2l-17,30.4l17,30.3c0.5,0.8-0.2,2-1.2,2H88.9c-0.5,0-0.9-0.3-1.2-0.7l-17.3-31c-0.1-0.2-0.1-0.3-0.2-0.5
    c0,0.2-0.1,0.3-0.2,0.5l-17.4,31c-0.2,0.4-0.6,0.7-1.1,0.7H41.3c-0.9,0-1.6-1.2-1.2-2l17-30.3l-17-30.4
    C39.8,31.4,40.3,30.3,41.1,30.2L41.1,30.2z"/>
<div  id="divScriptsUsed" style="display: none" xmlns=""></div>
</svg>
