<svg xmlns="http://www.w3.org/2000/svg" viewBox="0 0 140.5 125"><path d="M40.5 0c-3.8 0-7.5 2.2-9.4 5.4L1.4 57.1c-1.9 3.3-1.9 7.6 0 10.9l29.7 51.6c1.9 3.3 5.6 5.4 9.4 5.4H100c3.8 0 7.5-2.2 9.4-5.4L139.1 68c1.9-3.3 1.9-7.6 0-10.9L109.4 5.4C107.5 2.2 103.7 0 100 0H40.5zm.6 30.2h10.4c.5 0 .9.3 1.1.7l17.4 31c.1.2.1.3.2.5 0-.2.1-.3.2-.5l17.3-31c.2-.4.7-.7 1.2-.7h10.2c.9 0 1.6 1.2 1.2 2l-17 30.4 17 30.3c.5.8-.2 2-1.2 2H88.9c-.5 0-.9-.3-1.2-.7l-17.3-31c-.1-.2-.1-.3-.2-.5 0 .2-.1.3-.2.5l-17.4 31c-.2.4-.6.7-1.1.7H41.3c-.9 0-1.6-1.2-1.2-2l17-30.3-17-30.4c-.3-.8.2-1.9 1-2z" fill="#3498db"/></svg>